<svg width="151" height="45" viewBox="0 0 151 45" fill="none" xmlns="http://www.w3.org/2000/svg">
<path d="M3.14936 40.535C2.8628 40.0803 2.54318 39.649 2.31174 39.171C0.592413 35.6736 0.790796 32.2811 2.90689 29.0285C3.25957 28.4922 3.70042 28.0026 4.15229 27.5596C7.7783 23.9456 11.4153 20.3433 15.0413 16.7176C16.8378 14.9223 17.4881 12.7189 16.9811 10.1658C16.1876 6.15544 11.9444 3.80052 8.36243 5.35104C4.8797 6.86658 3.3257 10.9469 4.92379 14.5725C5.22136 15.237 5.67323 15.8433 6.12511 16.4145C6.62107 17.0557 7.19417 17.6269 7.7232 18.2448C8.11996 18.6995 8.15303 19.3523 7.85545 19.8186C7.53584 20.3199 6.96273 20.5298 6.44473 20.3316C6.29043 20.2733 6.11409 20.18 6.00387 20.0518C5.02298 18.9443 3.93187 17.9417 3.20446 16.6244C1.38595 13.3484 1.37493 10.0376 3.18242 6.75C3.46897 6.22539 3.85472 5.75907 4.19638 5.25777C4.49395 4.96632 4.79153 4.66321 5.08911 4.37176C5.51894 4.06865 5.92672 3.73057 6.38962 3.48575C9.67397 1.67876 12.9032 1.81866 15.923 4.06865C19.9458 7.07643 20.8055 13.057 17.8848 17.2073C17.5101 17.7319 17.0913 18.2215 16.6394 18.6762C13.0134 22.2902 9.37639 25.8925 5.75038 29.5181C3.95391 31.3135 3.30365 33.5052 3.79961 36.0699C4.59315 40.0803 8.82533 42.4469 12.4073 40.8964C15.912 39.3808 17.455 35.2655 15.8459 31.6515C15.5593 30.9987 15.0965 30.4041 14.6666 29.8329C14.1817 29.2034 13.6086 28.6321 13.0906 28.0259C12.6828 27.5479 12.6497 26.8834 12.9693 26.3821C13.2779 25.9158 13.8621 25.7176 14.3801 25.9158C14.5233 25.9741 14.6887 26.0557 14.7879 26.1723C15.7687 27.2798 16.8599 28.2824 17.5873 29.5997C19.3948 32.8756 19.4719 36.2332 17.5873 39.4624C15.6255 42.8083 12.6607 44.2306 8.9686 43.8575C7.21622 43.6826 5.66221 42.9132 4.30659 41.7008C4.2074 41.6192 4.10821 41.5376 4.00902 41.456C3.71144 41.1645 3.43591 40.8497 3.14936 40.535Z" fill="url(#paint0_linear_24_74)"/>
<path d="M34.7364 5.77072C35.5189 6.58679 35.9157 7.76425 35.9157 9.30311V15.75H34.6042V9.46632C34.6042 8.2772 34.3176 7.35622 33.7555 6.72668C33.1934 6.09715 32.4219 5.78238 31.441 5.78238C30.4381 5.78238 29.6336 6.12046 29.0384 6.78497C28.4433 7.46114 28.1457 8.44041 28.1457 9.74611V15.75H26.8121V4.75647H28.1457V6.63342C28.4763 5.95725 28.9502 5.4443 29.5784 5.09456C30.1956 4.73316 30.901 4.55829 31.6945 4.55829C32.9289 4.54663 33.9429 4.95466 34.7364 5.77072Z" fill="url(#paint1_linear_24_74)"/>
<path d="M48.2375 10.7953H39.6078C39.6519 11.6231 39.8393 12.3342 40.1809 12.9288C40.5226 13.5233 40.9745 13.9663 41.5366 14.2694C42.0986 14.5725 42.7048 14.7241 43.3661 14.7241C44.2258 14.7241 44.9532 14.5026 45.5483 14.0596C46.1435 13.6166 46.5292 13.022 46.7166 12.2642H48.1273C47.8738 13.3368 47.3338 14.2111 46.4961 14.8873C45.6695 15.5635 44.6225 15.9016 43.3661 15.9016C42.3852 15.9016 41.5145 15.6684 40.743 15.2021C39.9715 14.7357 39.3654 14.0829 38.9245 13.2319C38.4837 12.3808 38.2632 11.3782 38.2632 10.2357C38.2632 9.09326 38.4837 8.09067 38.9135 7.23963C39.3433 6.37694 39.9495 5.72409 40.721 5.26943C41.4925 4.81476 42.3742 4.5816 43.3661 4.5816C44.358 4.5816 45.2177 4.81476 45.9671 5.26943C46.7056 5.72409 47.2787 6.34197 47.6754 7.1114C48.0722 7.88083 48.2706 8.74352 48.2706 9.67616C48.2706 10.1658 48.2596 10.5389 48.2375 10.7953ZM46.4521 7.5544C46.1324 6.98316 45.6916 6.54015 45.1295 6.2487C44.5674 5.95725 43.9612 5.8057 43.3 5.8057C42.308 5.8057 41.4704 6.14378 40.7651 6.80829C40.0707 7.48445 39.674 8.42875 39.6078 9.65285H46.915C46.937 8.82513 46.7827 8.12565 46.4521 7.5544Z" fill="url(#paint2_linear_24_74)"/>
<path d="M54.4095 14.3744L57.9142 4.74482H59.325L55.1589 15.7383H53.649L49.4829 4.74482H50.9157L54.4095 14.3744Z" fill="url(#paint3_linear_24_74)"/>
<path d="M70.5006 10.7953H61.8709C61.9039 11.6231 62.1023 12.3342 62.444 12.9288C62.7856 13.5233 63.2375 13.9663 63.7996 14.2694C64.3617 14.5725 64.9679 14.7241 65.6291 14.7241C66.4888 14.7241 67.2162 14.5026 67.8114 14.0596C68.4065 13.6166 68.7923 13.022 68.9796 12.2642H70.3903C70.1369 13.3368 69.5968 14.2111 68.7592 14.8873C67.9326 15.5635 66.8856 15.9016 65.6291 15.9016C64.6482 15.9016 63.7776 15.6684 63.0061 15.2021C62.2346 14.7357 61.6284 14.0829 61.1876 13.2319C60.7467 12.3808 60.5263 11.3782 60.5263 10.2357C60.5263 9.09326 60.7467 8.09067 61.1765 7.23963C61.6064 6.37694 62.2125 5.72409 62.984 5.26943C63.7555 4.81476 64.6372 4.5816 65.6291 4.5816C66.6211 4.5816 67.4807 4.81476 68.2302 5.26943C68.9686 5.72409 69.5417 6.34197 69.9385 7.1114C70.3352 7.88083 70.5336 8.74352 70.5336 9.67616C70.5336 10.1658 70.5226 10.5389 70.5006 10.7953ZM68.7151 7.5544C68.3955 6.98316 67.9546 6.54015 67.3926 6.2487C66.8305 5.95725 66.2243 5.8057 65.563 5.8057C64.5711 5.8057 63.7225 6.14378 63.0281 6.80829C62.3338 7.48445 61.948 8.42875 61.8709 9.65285H69.178C69.189 8.82513 69.0347 8.12565 68.7151 7.5544Z" fill="url(#paint4_linear_24_74)"/>
<path d="M75.6475 5.11787C76.2537 4.74482 76.9921 4.55829 77.8628 4.55829V6.0272H77.4991C76.5292 6.0272 75.7577 6.30699 75.1736 6.85492C74.5895 7.40285 74.2919 8.32383 74.2919 9.61788V15.7617H72.9583V4.75648H74.2919V6.71502C74.6005 6.01554 75.0413 5.49093 75.6475 5.11787Z" fill="url(#paint5_linear_24_74)"/>
<path d="M94.4499 10.7953H85.8202C85.8533 11.6231 86.0516 12.3342 86.3933 12.9288C86.735 13.5233 87.1868 13.9663 87.7489 14.2694C88.311 14.5725 88.9172 14.7241 89.5785 14.7241C90.4381 14.7241 91.1655 14.5026 91.7607 14.0596C92.3558 13.6166 92.7416 13.022 92.9289 12.2642H94.3397C94.0862 13.3368 93.5461 14.2111 92.7085 14.8873C91.8819 15.5635 90.8349 15.9016 89.5785 15.9016C88.5976 15.9016 87.7269 15.6684 86.9554 15.2021C86.1839 14.7357 85.5777 14.0829 85.1369 13.2319C84.696 12.3808 84.4756 11.3782 84.4756 10.2357C84.4756 9.09326 84.696 8.09067 85.1258 7.23963C85.5557 6.37694 86.1618 5.72409 86.9333 5.26943C87.7048 4.81476 88.5865 4.5816 89.5785 4.5816C90.5704 4.5816 91.43 4.81476 92.1795 5.26943C92.9179 5.72409 93.491 6.34197 93.8878 7.1114C94.2846 7.88083 94.4829 8.74352 94.4829 9.67616C94.4829 10.1658 94.4719 10.5389 94.4499 10.7953ZM92.6644 7.5544C92.3448 6.98316 91.9039 6.54015 91.3419 6.2487C90.7798 5.95725 90.1736 5.8057 89.5123 5.8057C88.5204 5.8057 87.6718 6.14378 86.9774 6.80829C86.2831 7.48445 85.8973 8.42875 85.8202 9.65285H93.1273C93.1494 8.82513 92.9951 8.12565 92.6644 7.5544Z" fill="url(#paint6_linear_24_74)"/>
<path d="M104.843 5.77072C105.625 6.58679 106.022 7.76425 106.022 9.30311V15.75H104.711V9.46632C104.711 8.2772 104.424 7.35622 103.862 6.72668C103.3 6.09715 102.529 5.78238 101.548 5.78238C100.545 5.78238 99.7401 6.12046 99.145 6.78497C98.5498 7.46114 98.2522 8.44041 98.2522 9.74611V15.75H96.9187V4.75647H98.2522V6.63342C98.5829 5.95725 99.0568 5.4443 99.685 5.09456C100.302 4.73316 101.008 4.55829 101.801 4.55829C103.047 4.54663 104.06 4.95466 104.843 5.77072Z" fill="url(#paint7_linear_24_74)"/>
<path d="M109.02 7.26295C109.45 6.41192 110.045 5.74741 110.805 5.29275C111.566 4.83808 112.415 4.59326 113.362 4.59326C114.277 4.59326 115.104 4.82643 115.842 5.3044C116.581 5.77073 117.121 6.3886 117.462 7.13472V0.839378H118.796V15.75H117.462V13.2902C117.143 14.0596 116.625 14.6891 115.897 15.1671C115.17 15.6567 114.321 15.9016 113.34 15.9016C112.393 15.9016 111.533 15.6684 110.783 15.2021C110.034 14.7358 109.439 14.0712 109.009 13.2086C108.579 12.3459 108.37 11.3549 108.37 10.2241C108.37 9.09327 108.579 8.11399 109.02 7.26295ZM116.933 7.9158C116.592 7.23964 116.129 6.72668 115.534 6.36529C114.938 6.00389 114.288 5.81736 113.583 5.81736C112.844 5.81736 112.183 5.99223 111.599 6.34197C111.015 6.69171 110.552 7.19301 110.221 7.85751C109.891 8.52202 109.714 9.31477 109.714 10.2241C109.714 11.1218 109.88 11.9145 110.221 12.5907C110.563 13.2668 111.015 13.7798 111.599 14.1412C112.183 14.5026 112.844 14.6775 113.583 14.6775C114.288 14.6775 114.938 14.5026 115.534 14.1295C116.129 13.7681 116.592 13.2552 116.933 12.579C117.275 11.9029 117.451 11.1334 117.451 10.2474C117.451 9.3614 117.286 8.58031 116.933 7.9158Z" fill="url(#paint8_linear_24_74)"/>
<path d="M121.816 2.37824C121.628 2.18005 121.529 1.92357 121.529 1.63212C121.529 1.34067 121.628 1.09585 121.816 0.897667C122.003 0.699481 122.235 0.606216 122.499 0.606216C122.764 0.606216 122.995 0.699481 123.182 0.897667C123.37 1.09585 123.469 1.34067 123.469 1.63212C123.469 1.92357 123.37 2.18005 123.182 2.37824C122.995 2.57642 122.764 2.68135 122.499 2.68135C122.235 2.68135 122.003 2.57642 121.816 2.37824ZM123.16 4.75647V15.75H121.827V4.75647H123.16Z" fill="url(#paint9_linear_24_74)"/>
<path d="M134.116 5.77072C134.898 6.58679 135.295 7.76425 135.295 9.30311V15.75H133.983V9.46632C133.983 8.2772 133.697 7.35622 133.135 6.72668C132.573 6.09715 131.801 5.78238 130.82 5.78238C129.817 5.78238 129.013 6.12046 128.418 6.78497C127.822 7.46114 127.525 8.44041 127.525 9.74611V15.75H126.191V4.75647H127.525V6.63342C127.855 5.95725 128.329 5.4443 128.958 5.09456C129.575 4.73316 130.28 4.55829 131.074 4.55829C132.308 4.54663 133.322 4.95466 134.116 5.77072Z" fill="url(#paint10_linear_24_74)"/>
<path d="M145.159 5.31606C145.886 5.79404 146.404 6.41192 146.724 7.14637V4.75648H148.057V16.0414C148.057 17.044 147.848 17.9417 147.44 18.7228C147.021 19.5039 146.448 20.0984 145.721 20.5298C144.983 20.9495 144.145 21.1593 143.208 21.1593C141.875 21.1593 140.772 20.8212 139.88 20.1567C138.987 19.4922 138.447 18.5712 138.238 17.4171H139.549C139.78 18.1865 140.21 18.7927 140.85 19.2474C141.489 19.7021 142.271 19.9352 143.197 19.9352C143.869 19.9352 144.476 19.7837 145.005 19.4806C145.534 19.1775 145.952 18.7345 146.261 18.1399C146.57 17.5453 146.724 16.8459 146.724 16.0414V13.3251C146.393 14.0829 145.864 14.7008 145.159 15.1904C144.443 15.68 143.594 15.9249 142.613 15.9249C141.665 15.9249 140.805 15.6917 140.056 15.2254C139.307 14.7591 138.711 14.0946 138.282 13.2319C137.852 12.3692 137.642 11.3782 137.642 10.2474C137.642 9.11658 137.852 8.12565 138.282 7.27461C138.711 6.42358 139.296 5.75907 140.056 5.30441C140.805 4.83808 141.665 4.60492 142.613 4.60492C143.583 4.59327 144.431 4.82643 145.159 5.31606ZM146.206 7.9158C145.864 7.23964 145.401 6.72668 144.806 6.36529C144.211 6.00389 143.561 5.81736 142.855 5.81736C142.117 5.81736 141.456 5.99223 140.872 6.34197C140.287 6.69171 139.825 7.19301 139.494 7.85751C139.163 8.52202 138.987 9.31477 138.987 10.2241C138.987 11.1218 139.152 11.9145 139.494 12.5907C139.836 13.2668 140.287 13.7798 140.872 14.1412C141.456 14.5026 142.117 14.6775 142.855 14.6775C143.561 14.6775 144.211 14.5026 144.806 14.1295C145.401 13.7681 145.864 13.2552 146.206 12.579C146.548 11.9028 146.724 11.1334 146.724 10.2474C146.713 9.3614 146.548 8.58031 146.206 7.9158Z" fill="url(#paint11_linear_24_74)"/>
<path d="M28.5645 42.6451C27.4293 41.7707 26.8011 40.57 26.6688 39.0661H28.7298C28.829 39.9987 29.2368 40.7448 29.9752 41.3161C30.7026 41.8873 31.6945 42.1788 32.9289 42.1788C34.02 42.1788 34.8687 41.9106 35.4859 41.3627C36.1031 40.8148 36.4117 40.1386 36.4117 39.3342C36.4117 38.7746 36.2463 38.3083 35.8937 37.9469C35.552 37.5855 35.1222 37.294 34.5931 37.0842C34.0641 36.8744 33.3588 36.6412 32.466 36.408C31.3088 36.0816 30.361 35.7668 29.6336 35.4404C28.9061 35.114 28.3 34.636 27.793 34.0065C27.286 33.3769 27.0325 32.5259 27.0325 31.4534C27.0325 30.649 27.264 29.9029 27.7158 29.215C28.1677 28.5272 28.818 27.9909 29.6556 27.5829C30.4932 27.1749 31.4411 26.9767 32.5101 26.9767C34.1854 26.9767 35.541 27.4313 36.566 28.3174C37.5909 29.215 38.142 30.4508 38.2192 32.0246H36.2243C36.1692 31.057 35.8055 30.2759 35.1552 29.6814C34.505 29.0868 33.6012 28.7953 32.455 28.7953C31.4411 28.7953 30.6255 29.0518 29.9973 29.5531C29.369 30.0544 29.0604 30.6839 29.0604 31.4301C29.0604 32.0712 29.2478 32.6075 29.6115 33.0155C29.9862 33.4236 30.4491 33.75 31.0002 33.9832C31.5513 34.2163 32.3007 34.4728 33.2265 34.7526C34.3507 35.079 35.2434 35.3821 35.9157 35.6852C36.577 35.9883 37.1501 36.4314 37.624 37.0143C38.0979 37.5972 38.3514 38.3782 38.3624 39.3459C38.3624 40.2319 38.131 41.0246 37.6791 41.7124C37.2272 42.4003 36.588 42.9599 35.7614 43.3562C34.9458 43.7643 33.998 43.9624 32.9289 43.9624C31.1545 43.9624 29.6997 43.5311 28.5645 42.6451Z" fill="url(#paint12_linear_24_74)"/>
<path d="M45.0083 42.9249C43.84 42.2254 42.9142 41.2461 42.2419 39.9637C41.5696 38.6813 41.228 37.1891 41.228 35.4754C41.228 33.7617 41.5696 32.2694 42.2529 30.987C42.9363 29.7047 43.8731 28.7254 45.0524 28.0259C46.2316 27.3264 47.5542 26.9883 49.02 26.9883C50.4859 26.9883 51.8084 27.3381 53.0097 28.0259C54.2 28.7254 55.1369 29.7047 55.8092 30.987C56.4815 32.2694 56.8231 33.7617 56.8231 35.4754C56.8231 37.1658 56.4815 38.658 55.7981 39.9521C55.1148 41.2461 54.167 42.237 52.9657 42.9249C51.7643 43.6243 50.4308 43.9624 48.9649 43.9624C47.4991 43.9624 46.1876 43.6127 45.0083 42.9249ZM51.8194 41.386C52.7012 40.8964 53.4065 40.1503 53.9466 39.1477C54.4866 38.1567 54.7621 36.9326 54.7621 35.4754C54.7621 34.0181 54.4976 32.8057 53.9576 31.8031C53.4175 30.8005 52.7232 30.0661 51.8415 29.5648C50.9598 29.0751 50.0119 28.8187 48.987 28.8187C47.962 28.8187 47.0031 29.0635 46.1324 29.5648C45.2507 30.0544 44.5564 30.8005 44.0384 31.8031C43.5094 32.794 43.2559 34.0181 43.2559 35.4754C43.2559 36.9326 43.5204 38.1451 44.0384 39.1477C44.5674 40.1386 45.2507 40.8964 46.1214 41.386C46.9921 41.8756 47.9399 42.1321 48.9649 42.1321C50.0009 42.1205 50.9488 41.8756 51.8194 41.386Z" fill="url(#paint13_linear_24_74)"/>
<path d="M62.477 21.3692V43.7293H60.4822V21.3692H62.477Z" fill="url(#paint14_linear_24_74)"/>
<path d="M80.5299 27.2332V43.7293H78.5351V40.8264C78.0722 41.8523 77.3779 42.6334 76.419 43.1813C75.4712 43.7293 74.4021 43.9974 73.2228 43.9974C71.3602 43.9974 69.8283 43.3912 68.649 42.1671C67.4697 40.943 66.8745 39.1826 66.8745 36.8627V27.2215H68.8474V36.6179C68.8474 38.4132 69.2662 39.7772 70.1148 40.7215C70.9634 41.6658 72.1207 42.1438 73.5865 42.1438C75.0964 42.1438 76.2867 41.6425 77.1905 40.6282C78.0832 39.6256 78.5351 38.1451 78.5351 36.1865V27.2098L80.5299 27.2332Z" fill="url(#paint15_linear_24_74)"/>
<path d="M87.7048 29.0052V39.2526C87.7048 40.2552 87.8812 40.9547 88.2449 41.3394C88.6086 41.7241 89.2478 41.9106 90.1626 41.9106H91.9921V43.7293H89.854C88.4432 43.7293 87.3962 43.3795 86.7129 42.6917C86.0296 42.0039 85.6879 40.8497 85.6879 39.2642V29.0168H83.5167V27.2332H85.6879V23.0829H87.7158V27.2215H92.0031V29.0052H87.7048Z" fill="url(#paint16_linear_24_74)"/>
<path d="M95.2434 23.6658C94.9568 23.3627 94.8135 22.9896 94.8135 22.5466C94.8135 22.1036 94.9568 21.7306 95.2434 21.4391C95.5299 21.1477 95.8716 20.9961 96.2684 20.9961C96.6651 20.9961 97.0068 21.136 97.2933 21.4391C97.5799 21.7422 97.7232 22.1036 97.7232 22.5466C97.7232 22.9896 97.5799 23.3627 97.2933 23.6658C97.0068 23.9689 96.6651 24.1205 96.2684 24.1205C95.8716 24.1205 95.5299 23.9689 95.2434 23.6658ZM97.2713 27.2332V43.7293H95.2764V27.2332H97.2713Z" fill="url(#paint17_linear_24_74)"/>
<path d="M104.678 42.9249C103.509 42.2254 102.584 41.2461 101.911 39.9637C101.239 38.6813 100.897 37.1891 100.897 35.4754C100.897 33.7617 101.239 32.2694 101.922 30.987C102.606 29.7047 103.542 28.7254 104.722 28.0259C105.901 27.3264 107.224 26.9883 108.689 26.9883C110.155 26.9883 111.478 27.3381 112.679 28.0259C113.88 28.7137 114.806 29.7047 115.479 30.987C116.151 32.2694 116.492 33.7617 116.492 35.4754C116.492 37.1658 116.151 38.658 115.467 39.9521C114.784 41.2461 113.836 42.237 112.635 42.9249C111.434 43.6243 110.1 43.9624 108.634 43.9624C107.168 43.9624 105.846 43.6127 104.678 42.9249ZM111.489 41.386C112.359 40.8964 113.076 40.1503 113.616 39.1477C114.156 38.1567 114.431 36.9326 114.431 35.4754C114.431 34.0181 114.167 32.8057 113.627 31.8031C113.087 30.8005 112.393 30.0661 111.511 29.5648C110.64 29.0751 109.681 28.8187 108.656 28.8187C107.631 28.8187 106.672 29.0635 105.802 29.5648C104.931 30.0544 104.226 30.8005 103.697 31.8031C103.168 32.794 102.914 34.0181 102.914 35.4754C102.914 36.9326 103.179 38.1451 103.697 39.1477C104.226 40.1386 104.92 40.8964 105.78 41.386C106.65 41.8756 107.598 42.1321 108.623 42.1321C109.659 42.1205 110.618 41.8756 111.489 41.386Z" fill="url(#paint18_linear_24_74)"/>
<path d="M132.033 28.7487C133.212 29.9728 133.807 31.7332 133.807 34.0531V43.7176H131.834V34.2863C131.834 32.4909 131.415 31.1269 130.567 30.1826C129.718 29.2383 128.561 28.7604 127.095 28.7604C125.585 28.7604 124.395 29.2617 123.491 30.2759C122.598 31.2785 122.146 32.7591 122.146 34.7176V43.7176H120.152V27.2215H122.146V30.0311C122.642 29.0285 123.359 28.2591 124.285 27.7228C125.221 27.1865 126.279 26.9184 127.459 26.9184C129.321 26.9301 130.842 27.5363 132.033 28.7487Z" fill="url(#paint19_linear_24_74)"/>
<path d="M139.207 42.6451C138.072 41.7707 137.444 40.57 137.312 39.0661H139.373C139.472 39.9987 139.88 40.7448 140.618 41.3161C141.357 41.8873 142.337 42.1788 143.572 42.1788C144.652 42.1788 145.512 41.9106 146.129 41.3627C146.746 40.8148 147.055 40.1386 147.055 39.3342C147.055 38.7746 146.878 38.3083 146.537 37.9469C146.195 37.5855 145.765 37.294 145.236 37.0842C144.707 36.8744 144.002 36.6412 143.109 36.408C141.952 36.0816 141.004 35.7668 140.276 35.4404C139.549 35.114 138.943 34.636 138.436 34.0065C137.929 33.3769 137.675 32.5259 137.675 31.4534C137.675 30.649 137.907 29.9029 138.359 29.215C138.822 28.5272 139.461 27.9909 140.298 27.5829C141.136 27.1749 142.084 26.9767 143.153 26.9767C144.828 26.9767 146.184 27.4313 147.209 28.3174C148.234 29.215 148.785 30.4508 148.862 32.0246H146.867C146.812 31.057 146.448 30.2759 145.798 29.6814C145.148 29.0868 144.244 28.7953 143.098 28.7953C142.084 28.7953 141.268 29.0518 140.64 29.5531C140.012 30.0544 139.692 30.6839 139.692 31.4301C139.692 32.0712 139.88 32.6075 140.254 33.0155C140.629 33.4236 141.092 33.75 141.643 33.9832C142.194 34.2163 142.944 34.4728 143.869 34.7526C144.994 35.079 145.886 35.3821 146.559 35.6852C147.231 35.9883 147.793 36.4314 148.278 37.0143C148.752 37.5972 149.005 38.3782 149.016 39.3459C149.016 40.2319 148.785 41.0246 148.333 41.7124C147.881 42.4003 147.242 42.9599 146.415 43.3562C145.6 43.7643 144.652 43.9624 143.583 43.9624C141.808 43.9624 140.343 43.5311 139.207 42.6451Z" fill="url(#paint20_linear_24_74)"/>
<path d="M10.3793 16.8575C8.11996 16.8575 6.2794 14.9223 6.2794 12.5207C6.2794 10.1308 8.10894 8.18394 10.3793 8.18394C12.6387 8.18394 14.4793 10.1192 14.4793 12.5207C14.4793 14.9223 12.6387 16.8575 10.3793 16.8575Z" fill="url(#paint21_linear_24_74)"/>
<defs>
<linearGradient id="paint0_linear_24_74" x1="1.15478" y1="23.1009" x2="19.6035" y2="23.1009" gradientUnits="userSpaceOnUse">
<stop stop-color="#EE2A7B"/>
<stop offset="1" stop-color="#662D91"/>
</linearGradient>
<linearGradient id="paint1_linear_24_74" x1="26.6617" y1="10.15" x2="149.022" y2="10.15" gradientUnits="userSpaceOnUse">
<stop stop-color="#EE2A7B"/>
<stop offset="1" stop-color="#662D91"/>
</linearGradient>
<linearGradient id="paint2_linear_24_74" x1="26.6617" y1="10.2491" x2="149.022" y2="10.2491" gradientUnits="userSpaceOnUse">
<stop stop-color="#EE2A7B"/>
<stop offset="1" stop-color="#662D91"/>
</linearGradient>
<linearGradient id="paint3_linear_24_74" x1="26.6617" y1="10.2497" x2="149.022" y2="10.2497" gradientUnits="userSpaceOnUse">
<stop stop-color="#EE2A7B"/>
<stop offset="1" stop-color="#662D91"/>
</linearGradient>
<linearGradient id="paint4_linear_24_74" x1="26.6617" y1="10.2491" x2="149.022" y2="10.2491" gradientUnits="userSpaceOnUse">
<stop stop-color="#EE2A7B"/>
<stop offset="1" stop-color="#662D91"/>
</linearGradient>
<linearGradient id="paint5_linear_24_74" x1="26.6617" y1="10.1488" x2="149.022" y2="10.1488" gradientUnits="userSpaceOnUse">
<stop stop-color="#EE2A7B"/>
<stop offset="1" stop-color="#662D91"/>
</linearGradient>
<linearGradient id="paint6_linear_24_74" x1="26.6617" y1="10.2491" x2="149.022" y2="10.2491" gradientUnits="userSpaceOnUse">
<stop stop-color="#EE2A7B"/>
<stop offset="1" stop-color="#662D91"/>
</linearGradient>
<linearGradient id="paint7_linear_24_74" x1="26.6618" y1="10.15" x2="149.022" y2="10.15" gradientUnits="userSpaceOnUse">
<stop stop-color="#EE2A7B"/>
<stop offset="1" stop-color="#662D91"/>
</linearGradient>
<linearGradient id="paint8_linear_24_74" x1="26.6617" y1="8.37681" x2="149.022" y2="8.37681" gradientUnits="userSpaceOnUse">
<stop stop-color="#EE2A7B"/>
<stop offset="1" stop-color="#662D91"/>
</linearGradient>
<linearGradient id="paint9_linear_24_74" x1="26.6612" y1="8.17454" x2="149.022" y2="8.17454" gradientUnits="userSpaceOnUse">
<stop stop-color="#EE2A7B"/>
<stop offset="1" stop-color="#662D91"/>
</linearGradient>
<linearGradient id="paint10_linear_24_74" x1="26.6618" y1="10.15" x2="149.022" y2="10.15" gradientUnits="userSpaceOnUse">
<stop stop-color="#EE2A7B"/>
<stop offset="1" stop-color="#662D91"/>
</linearGradient>
<linearGradient id="paint11_linear_24_74" x1="26.6617" y1="12.8675" x2="149.022" y2="12.8675" gradientUnits="userSpaceOnUse">
<stop stop-color="#EE2A7B"/>
<stop offset="1" stop-color="#662D91"/>
</linearGradient>
<linearGradient id="paint12_linear_24_74" x1="26.6622" y1="35.4777" x2="149.023" y2="35.4777" gradientUnits="userSpaceOnUse">
<stop stop-color="#EE2A7B"/>
<stop offset="1" stop-color="#662D91"/>
</linearGradient>
<linearGradient id="paint13_linear_24_74" x1="26.6617" y1="35.4759" x2="149.022" y2="35.4759" gradientUnits="userSpaceOnUse">
<stop stop-color="#EE2A7B"/>
<stop offset="1" stop-color="#662D91"/>
</linearGradient>
<linearGradient id="paint14_linear_24_74" x1="26.6616" y1="32.5451" x2="149.023" y2="32.5451" gradientUnits="userSpaceOnUse">
<stop stop-color="#EE2A7B"/>
<stop offset="1" stop-color="#662D91"/>
</linearGradient>
<linearGradient id="paint15_linear_24_74" x1="26.6617" y1="35.6117" x2="149.022" y2="35.6117" gradientUnits="userSpaceOnUse">
<stop stop-color="#EE2A7B"/>
<stop offset="1" stop-color="#662D91"/>
</linearGradient>
<linearGradient id="paint16_linear_24_74" x1="26.6617" y1="33.406" x2="149.022" y2="33.406" gradientUnits="userSpaceOnUse">
<stop stop-color="#EE2A7B"/>
<stop offset="1" stop-color="#662D91"/>
</linearGradient>
<linearGradient id="paint17_linear_24_74" x1="26.6616" y1="32.3632" x2="149.022" y2="32.3632" gradientUnits="userSpaceOnUse">
<stop stop-color="#EE2A7B"/>
<stop offset="1" stop-color="#662D91"/>
</linearGradient>
<linearGradient id="paint18_linear_24_74" x1="26.6617" y1="35.4759" x2="149.022" y2="35.4759" gradientUnits="userSpaceOnUse">
<stop stop-color="#EE2A7B"/>
<stop offset="1" stop-color="#662D91"/>
</linearGradient>
<linearGradient id="paint19_linear_24_74" x1="26.6617" y1="35.3232" x2="149.022" y2="35.3232" gradientUnits="userSpaceOnUse">
<stop stop-color="#EE2A7B"/>
<stop offset="1" stop-color="#662D91"/>
</linearGradient>
<linearGradient id="paint20_linear_24_74" x1="26.6618" y1="35.4777" x2="149.022" y2="35.4777" gradientUnits="userSpaceOnUse">
<stop stop-color="#EE2A7B"/>
<stop offset="1" stop-color="#662D91"/>
</linearGradient>
<linearGradient id="paint21_linear_24_74" x1="6.28051" y1="12.5247" x2="14.4782" y2="12.5247" gradientUnits="userSpaceOnUse">
<stop stop-color="#EE2A7B"/>
<stop offset="1" stop-color="#662D91"/>
</linearGradient>
</defs>
</svg>
